<?xml version="1.0" encoding="UTF-8"?>
<svg width="1348px" height="1342px" viewBox="0 0 1348 1342" version="1.1" xmlns="http://www.w3.org/2000/svg" xmlns:xlink="http://www.w3.org/1999/xlink">
    <!-- Generator: Sketch 47.1 (45422) - http://www.bohemiancoding.com/sketch -->
    <title>Group</title>
    <desc>Created with Sketch.</desc>
    <defs></defs>
    <g id="Page-1" stroke="none" stroke-width="1" fill="none" fill-rule="evenodd">
        <g id="BEN-Full-Logo_white" fill="#FFFFFE">
            <g id="Group">
                <path d="M299.402,819.253 C255.293,841.941 217.57,875.335 189.645,915.949 C221.266,1155.64 425.809,1340.82 673.855,1342 C673.926,1342 673.996,1342 674.07,1342 C922.117,1340.82 1126.66,1155.64 1158.28,915.949 C1130.35,875.335 1092.63,841.941 1048.52,819.253 C1049.4,829.773 1049.82,840.402 1049.82,851.148 C1049.82,1059.2 881.816,1227.99 674.07,1229.28 C673.996,1229.28 673.926,1229.28 673.855,1229.28 C466.109,1227.99 298.105,1059.2 298.105,851.148 C298.105,840.402 298.523,829.773 299.402,819.253" id="Fill-8"></path>
                <path d="M673.637,0.64 L0,364.988 L197.941,472.077 C182.98,499.863 172.902,552.495 172.902,613.085 L172.902,634.3 C172.902,724.003 194.977,796.234 222.332,796.234 L223.488,796.234 C269.977,714.566 357.75,659.484 458.449,659.484 C546.371,659.484 624.492,701.492 673.855,766.503 L673.855,766.788 C673.887,766.749 673.895,766.687 673.926,766.644 C673.969,766.699 674.031,766.734 674.07,766.788 L674.07,766.503 C723.434,701.492 801.555,659.484 889.477,659.484 C990.172,659.484 1077.94,714.566 1124.44,796.234 L1125.59,796.234 C1152.94,796.234 1175.02,724.003 1175.02,634.3 L1175.02,613.085 C1175.02,552.495 1164.94,499.863 1149.98,472.077 L1347.93,364.988 L674.285,0.64 L673.926,0.784 L673.637,0.64" id="Fill-9"></path>
            </g>
        </g>
    </g>
</svg>